<svg id="visual" viewBox="0 0 2000 3600" width="2000" height="3600" xmlns="http://www.w3.org/2000/svg" xmlns:xlink="http://www.w3.org/1999/xlink" version="1.1"><path d="M1872 3600L1866.2 3514.3C1860.3 3428.7 1848.7 3257.3 1847 3085.8C1845.3 2914.3 1853.7 2742.7 1863.3 2571.2C1873 2399.7 1884 2228.3 1884.8 2057C1885.7 1885.7 1876.3 1714.3 1867.2 1543C1858 1371.7 1849 1200.3 1848.5 1028.8C1848 857.3 1856 685.7 1856.8 514.2C1857.7 342.7 1851.3 171.3 1848.2 85.7L1845 0L2000 0L2000 85.7C2000 171.3 2000 342.7 2000 514.2C2000 685.7 2000 857.3 2000 1028.8C2000 1200.3 2000 1371.7 2000 1543C2000 1714.3 2000 1885.7 2000 2057C2000 2228.3 2000 2399.7 2000 2571.2C2000 2742.7 2000 2914.3 2000 3085.8C2000 3257.3 2000 3428.7 2000 3514.3L2000 3600Z" fill="#69faeb"></path><path d="M1883 3600L1885.3 3514.3C1887.7 3428.7 1892.3 3257.3 1897.7 3085.8C1903 2914.3 1909 2742.7 1910 2571.2C1911 2399.7 1907 2228.3 1899.5 2057C1892 1885.7 1881 1714.3 1876.5 1543C1872 1371.7 1874 1200.3 1880.3 1028.8C1886.7 857.3 1897.3 685.7 1901.8 514.2C1906.3 342.7 1904.7 171.3 1903.8 85.7L1903 0L2000 0L2000 85.7C2000 171.3 2000 342.7 2000 514.2C2000 685.7 2000 857.3 2000 1028.8C2000 1200.3 2000 1371.7 2000 1543C2000 1714.3 2000 1885.7 2000 2057C2000 2228.3 2000 2399.7 2000 2571.2C2000 2742.7 2000 2914.3 2000 3085.8C2000 3257.3 2000 3428.7 2000 3514.3L2000 3600Z" fill="#00d4ff"></path><path d="M1929 3600L1928.8 3514.3C1928.7 3428.7 1928.3 3257.3 1924.2 3085.8C1920 2914.3 1912 2742.7 1910 2571.2C1908 2399.7 1912 2228.3 1913.2 2057C1914.3 1885.7 1912.7 1714.3 1911.2 1543C1909.7 1371.7 1908.3 1200.3 1907.2 1028.8C1906 857.3 1905 685.7 1905.5 514.2C1906 342.7 1908 171.3 1909 85.7L1910 0L2000 0L2000 85.7C2000 171.3 2000 342.7 2000 514.2C2000 685.7 2000 857.3 2000 1028.8C2000 1200.3 2000 1371.7 2000 1543C2000 1714.3 2000 1885.7 2000 2057C2000 2228.3 2000 2399.7 2000 2571.2C2000 2742.7 2000 2914.3 2000 3085.8C2000 3257.3 2000 3428.7 2000 3514.3L2000 3600Z" fill="#00a4ff"></path><path d="M1929 3600L1928.5 3514.3C1928 3428.7 1927 3257.3 1928.7 3085.8C1930.3 2914.3 1934.7 2742.7 1934 2571.2C1933.3 2399.7 1927.7 2228.3 1927.8 2057C1928 1885.7 1934 1714.3 1939.3 1543C1944.7 1371.7 1949.3 1200.3 1949.8 1028.8C1950.3 857.3 1946.7 685.7 1943.3 514.2C1940 342.7 1937 171.3 1935.5 85.7L1934 0L2000 0L2000 85.7C2000 171.3 2000 342.7 2000 514.2C2000 685.7 2000 857.3 2000 1028.8C2000 1200.3 2000 1371.7 2000 1543C2000 1714.3 2000 1885.7 2000 2057C2000 2228.3 2000 2399.7 2000 2571.2C2000 2742.7 2000 2914.3 2000 3085.8C2000 3257.3 2000 3428.7 2000 3514.3L2000 3600Z" fill="#006ced"></path><path d="M1981 3600L1981.3 3514.3C1981.7 3428.7 1982.3 3257.3 1981.8 3085.8C1981.3 2914.3 1979.7 2742.7 1978.8 2571.2C1978 2399.7 1978 2228.3 1973.8 2057C1969.7 1885.7 1961.3 1714.3 1958.7 1543C1956 1371.7 1959 1200.3 1962.3 1028.8C1965.7 857.3 1969.3 685.7 1968.3 514.2C1967.3 342.7 1961.7 171.3 1958.8 85.7L1956 0L2000 0L2000 85.7C2000 171.3 2000 342.7 2000 514.2C2000 685.7 2000 857.3 2000 1028.8C2000 1200.3 2000 1371.7 2000 1543C2000 1714.3 2000 1885.7 2000 2057C2000 2228.3 2000 2399.7 2000 2571.2C2000 2742.7 2000 2914.3 2000 3085.8C2000 3257.3 2000 3428.7 2000 3514.3L2000 3600Z" fill="#2b24c7"></path></svg>