<svg id="visual" viewBox="0 0 2000 3600" width="2000" height="3600" xmlns="http://www.w3.org/2000/svg" xmlns:xlink="http://www.w3.org/1999/xlink" version="1.1"><path d="M130 0L135.8 85.7C141.7 171.3 153.3 342.7 155 514.2C156.7 685.7 148.3 857.3 138.7 1028.8C129 1200.3 118 1371.7 117.2 1543C116.3 1714.3 125.7 1885.7 134.8 2057C144 2228.3 153 2399.7 153.5 2571.2C154 2742.7 146 2914.3 145.2 3085.8C144.3 3257.3 150.7 3428.7 153.8 3514.3L157 3600L0 3600L0 3514.3C0 3428.7 0 3257.3 0 3085.8C0 2914.3 0 2742.7 0 2571.2C0 2399.7 0 2228.3 0 2057C0 1885.7 0 1714.3 0 1543C0 1371.7 0 1200.3 0 1028.8C0 857.3 0 685.7 0 514.2C0 342.7 0 171.3 0 85.7L0 0Z" fill="#69faeb"></path><path d="M119 0L116.7 85.7C114.3 171.3 109.7 342.7 104.3 514.2C99 685.7 93 857.3 92 1028.8C91 1200.3 95 1371.7 102.5 1543C110 1714.3 121 1885.7 125.5 2057C130 2228.3 128 2399.7 121.7 2571.2C115.3 2742.7 104.7 2914.3 100.2 3085.8C95.7 3257.3 97.3 3428.7 98.2 3514.3L99 3600L0 3600L0 3514.3C0 3428.7 0 3257.3 0 3085.8C0 2914.3 0 2742.7 0 2571.2C0 2399.7 0 2228.3 0 2057C0 1885.7 0 1714.3 0 1543C0 1371.7 0 1200.3 0 1028.8C0 857.3 0 685.7 0 514.2C0 342.7 0 171.3 0 85.7L0 0Z" fill="#00d4ff"></path><path d="M73 0L73.2 85.7C73.3 171.3 73.7 342.7 77.8 514.2C82 685.7 90 857.3 92 1028.8C94 1200.3 90 1371.7 88.8 1543C87.7 1714.3 89.3 1885.7 90.8 2057C92.3 2228.3 93.7 2399.7 94.8 2571.2C96 2742.7 97 2914.3 96.5 3085.8C96 3257.3 94 3428.7 93 3514.3L92 3600L0 3600L0 3514.3C0 3428.7 0 3257.3 0 3085.8C0 2914.3 0 2742.7 0 2571.2C0 2399.7 0 2228.3 0 2057C0 1885.7 0 1714.3 0 1543C0 1371.7 0 1200.3 0 1028.8C0 857.3 0 685.7 0 514.2C0 342.7 0 171.3 0 85.7L0 0Z" fill="#00a4ff"></path><path d="M73 0L73.5 85.7C74 171.3 75 342.7 73.3 514.2C71.7 685.7 67.3 857.3 68 1028.8C68.7 1200.3 74.3 1371.7 74.2 1543C74 1714.3 68 1885.7 62.7 2057C57.3 2228.3 52.7 2399.7 52.2 2571.2C51.7 2742.7 55.3 2914.3 58.7 3085.8C62 3257.3 65 3428.7 66.5 3514.3L68 3600L0 3600L0 3514.3C0 3428.7 0 3257.3 0 3085.8C0 2914.3 0 2742.7 0 2571.2C0 2399.7 0 2228.3 0 2057C0 1885.7 0 1714.3 0 1543C0 1371.7 0 1200.3 0 1028.8C0 857.3 0 685.7 0 514.2C0 342.7 0 171.3 0 85.7L0 0Z" fill="#006ced"></path><path d="M21 0L20.7 85.7C20.3 171.3 19.7 342.7 20.2 514.2C20.7 685.7 22.3 857.3 23.2 1028.8C24 1200.3 24 1371.7 28.2 1543C32.3 1714.3 40.7 1885.7 43.3 2057C46 2228.3 43 2399.7 39.7 2571.2C36.3 2742.7 32.7 2914.3 33.7 3085.8C34.7 3257.3 40.3 3428.7 43.2 3514.3L46 3600L0 3600L0 3514.3C0 3428.7 0 3257.3 0 3085.8C0 2914.3 0 2742.7 0 2571.2C0 2399.7 0 2228.3 0 2057C0 1885.7 0 1714.3 0 1543C0 1371.7 0 1200.3 0 1028.8C0 857.3 0 685.7 0 514.2C0 342.7 0 171.3 0 85.7L0 0Z" fill="#2b24c7"></path></svg>