<svg id="visual" viewBox="0 0 900 600" width="900" height="600" xmlns="http://www.w3.org/2000/svg" xmlns:xlink="http://www.w3.org/1999/xlink" version="1.1"><rect x="0" y="0" width="900" height="600" fill="#001220"></rect><path d="M0 506L21.5 499C43 492 86 478 128.8 476.3C171.7 474.7 214.3 485.3 257.2 484C300 482.7 343 469.3 385.8 469C428.7 468.7 471.3 481.3 514.2 484.8C557 488.3 600 482.7 642.8 483.7C685.7 484.7 728.3 492.3 771.2 488.3C814 484.3 857 468.7 878.5 460.8L900 453L900 601L878.5 601C857 601 814 601 771.2 601C728.3 601 685.7 601 642.8 601C600 601 557 601 514.2 601C471.3 601 428.7 601 385.8 601C343 601 300 601 257.2 601C214.3 601 171.7 601 128.8 601C86 601 43 601 21.5 601L0 601Z" fill="#69faf4"></path><path d="M0 527L21.5 522.7C43 518.3 86 509.7 128.8 502.2C171.7 494.7 214.3 488.3 257.2 485.2C300 482 343 482 385.8 489.2C428.7 496.3 471.3 510.7 514.2 513.2C557 515.7 600 506.3 642.8 505.8C685.7 505.3 728.3 513.7 771.2 514C814 514.3 857 506.7 878.5 502.8L900 499L900 601L878.5 601C857 601 814 601 771.2 601C728.3 601 685.7 601 642.8 601C600 601 557 601 514.2 601C471.3 601 428.7 601 385.8 601C343 601 300 601 257.2 601C214.3 601 171.7 601 128.8 601C86 601 43 601 21.5 601L0 601Z" fill="#00d3ff"></path><path d="M0 504L21.5 506.8C43 509.7 86 515.3 128.8 517.3C171.7 519.3 214.3 517.7 257.2 521.5C300 525.3 343 534.7 385.8 539C428.7 543.3 471.3 542.7 514.2 539.8C557 537 600 532 642.8 531C685.7 530 728.3 533 771.2 529.3C814 525.7 857 515.3 878.5 510.2L900 505L900 601L878.5 601C857 601 814 601 771.2 601C728.3 601 685.7 601 642.8 601C600 601 557 601 514.2 601C471.3 601 428.7 601 385.8 601C343 601 300 601 257.2 601C214.3 601 171.7 601 128.8 601C86 601 43 601 21.5 601L0 601Z" fill="#00a3ff"></path><path d="M0 529L21.5 533C43 537 86 545 128.8 547C171.7 549 214.3 545 257.2 543.7C300 542.3 343 543.7 385.8 543.7C428.7 543.7 471.3 542.3 514.2 543.3C557 544.3 600 547.7 642.8 551.7C685.7 555.7 728.3 560.3 771.2 560.8C814 561.3 857 557.7 878.5 555.8L900 554L900 601L878.5 601C857 601 814 601 771.2 601C728.3 601 685.7 601 642.8 601C600 601 557 601 514.2 601C471.3 601 428.7 601 385.8 601C343 601 300 601 257.2 601C214.3 601 171.7 601 128.8 601C86 601 43 601 21.5 601L0 601Z" fill="#006bed"></path><path d="M0 556L21.5 558.5C43 561 86 566 128.8 566.8C171.7 567.7 214.3 564.3 257.2 563.5C300 562.7 343 564.3 385.8 563.7C428.7 563 471.3 560 514.2 560.8C557 561.7 600 566.3 642.8 570.7C685.7 575 728.3 579 771.2 577.5C814 576 857 569 878.5 565.5L900 562L900 601L878.5 601C857 601 814 601 771.2 601C728.3 601 685.7 601 642.8 601C600 601 557 601 514.2 601C471.3 601 428.7 601 385.8 601C343 601 300 601 257.2 601C214.3 601 171.7 601 128.8 601C86 601 43 601 21.5 601L0 601Z" fill="#2624c7"></path></svg>